<svg width="220" height="54" viewBox="0 0 220 54" fill="none" xmlns="http://www.w3.org/2000/svg">
<rect x="10.1152" y="12.7059" width="10.1149" height="28.5882" fill="white"/>
<rect x="22.7588" y="12.7059" width="10.1149" height="28.5882" fill="white"/>
<path d="M35.4023 12.7059H45.5173V31.7648V31.7648C39.931 31.7648 35.4023 27.2361 35.4023 21.6498V12.7059Z" fill="white"/>
<rect x="48.0459" y="12.7059" width="10.1149" height="28.5882" fill="white"/>
<path d="M73.333 12.7059H73.9185C79.1815 12.7059 83.4479 16.9724 83.4479 22.2353V22.2353C83.4479 27.4983 79.1815 31.7648 73.9185 31.7648H73.333V12.7059Z" fill="white"/>
<rect x="60.6895" y="12.7059" width="10.1149" height="28.5882" fill="white"/>
<rect x="85.9766" y="12.7059" width="22.7586" height="28.5882" fill="white"/>
<path d="M123.908 12.7059H127.67C131.179 12.7059 134.023 15.5502 134.023 19.0589V19.0589C134.023 22.5675 131.179 25.4118 127.67 25.4118H123.908V12.7059Z" fill="white"/>
<path d="M123.908 28.5883V28.5883C129.495 28.5883 134.023 33.1169 134.023 38.7032V41.2941H123.908V28.5883Z" fill="white"/>
<rect x="111.265" y="12.7059" width="10.1149" height="28.5882" fill="white"/>
<path d="M149.195 12.7059H154.253C157.046 12.7059 159.31 15.5502 159.31 19.0589V19.0589C159.31 22.5675 157.046 25.4118 154.253 25.4118H149.195V12.7059Z" fill="white"/>
<path d="M149.195 28.5883H154.253C157.046 28.5883 159.31 31.4326 159.31 34.9412V34.9412C159.31 38.4498 157.046 41.2941 154.253 41.2941H149.195V28.5883Z" fill="white"/>
<path d="M136.552 12.7059H146.667V41.2942H136.552V12.7059Z" fill="white"/>
<path d="M161.839 27C161.839 19.1056 166.934 12.7059 173.218 12.7059V12.7059C179.503 12.7059 184.597 19.1056 184.597 27V27C184.597 34.8945 179.503 41.2942 173.218 41.2942V41.2942C166.934 41.2942 161.839 34.8945 161.839 27V27Z" fill="url(#paint0_linear_37_3793)"/>
<path d="M199.77 12.7059H204.827C207.62 12.7059 209.884 15.5502 209.884 19.0589V19.0589C209.884 22.5675 207.62 25.4118 204.827 25.4118H199.77V12.7059Z" fill="white"/>
<path d="M199.77 28.5883H204.827C207.62 28.5883 209.884 31.4326 209.884 34.9412V34.9412C209.884 38.4498 207.62 41.2941 204.827 41.2941H199.77V28.5883Z" fill="white"/>
<path d="M187.126 12.7059H197.241V41.2942H187.126V12.7059Z" fill="white"/>
<defs>
<linearGradient id="paint0_linear_37_3793" x1="161.839" y1="12.7059" x2="189.699" y2="34.8853" gradientUnits="userSpaceOnUse">
<stop stop-color="#7656FF"/>
<stop offset="0.473958" stop-color="#E96FFE"/>
<stop offset="1" stop-color="#FFD276"/>
</linearGradient>
</defs>
</svg>
