<?xml version="1.0" encoding="UTF-8"?>
<svg id="Layer_1" data-name="Layer 1" xmlns="http://www.w3.org/2000/svg" viewBox="0 0 599.124 142.705">
  <defs>
    <style>
      .cls-1 {
        fill: #f89f72;
      }

      .cls-2 {
        fill: #f58b77;
      }

      .cls-3 {
        fill: #fab06c;
      }

      .cls-4 {
        fill: #faad6c;
      }

      .cls-5 {
        fill: #f9a66f;
      }

      .cls-6 {
        fill: #677bbc;
      }

      .cls-7 {
        fill: #f69175;
      }

      .cls-8 {
        fill: #f79874;
      }

      .cls-9 {
        fill: #fdd0b2;
      }

      .cls-10 {
        fill: #fbb46b;
      }

      .cls-11 {
        fill: #fcb868;
      }

      .cls-12 {
        fill: #fdbe68;
      }

      .cls-13 {
        fill: #fdc068;
      }

      .cls-14 {
        fill: #fcf8c8;
      }

      .cls-15 {
        fill: #8dcb8e;
      }

      .cls-16 {
        fill: #8eacb1;
      }

      .cls-17, .cls-18 {
        fill: #ceebed;
      }

      .cls-19 {
        fill: #b082ba;
      }

      .cls-20 {
        fill: #c3a1cb;
      }

      .cls-21, .cls-22 {
        fill: #37374d;
      }

      .cls-23 {
        fill: #54bc7b;
      }

      .cls-22 {
        stroke: #37374d;
        stroke-miterlimit: 10;
        stroke-width: .2px;
      }

      .cls-18 {
        opacity: .75;
      }
    </style>
  </defs>
  <g>
    <g>
      <g>
        <path class="cls-15" d="m60.839,115.602l-2.2,21.02c-.17,1.63-1.12,2.92-2.33,3.34-.27.09-.55.14-.84.14-1.59,0-2.95-1.49-3.16-3.48l-1.86-17.74-.34-3.28c-.1-.89.06-1.79.42-2.55.16-.35.38-.68.63-.96.59-.65,1.34-1.01,2.11-1.01h4.4c.78,0,1.53.36,2.11,1.01.26.28.47.61.63.96.37.76.52,1.66.43,2.55Z"/>
        <path class="cls-15" d="m28.789,99.102l-4.82,6.42-16.08,21.39c-.55.73-1.43,1.17-2.34,1.17-1.06,0-2.01-.54-2.54-1.45-.53-.92-.54-2.01-.02-2.93l8.68-15.37,3.69-6.53,3.34-5.91c.52-.92,1.5-1.5,2.56-1.5h5.19c1.13,0,2.12.61,2.62,1.63.51,1.02.41,2.17-.28,3.08Z"/>
        <path class="cls-15" d="m108.059,126.632c-.06.11-.13.21-.22.31v.01c-.55.72-1.39,1.13-2.31,1.13s-1.8-.44-2.35-1.17l-10.89-14.5-5.48-7.29-4.53-6.02c-.68-.91-.79-2.06-.28-3.08.51-1.02,1.49-1.63,2.63-1.63h5.19c1.06,0,2.03.58,2.56,1.5l3.16,5.59,12.55,22.22c.52.92.51,2.01-.03,2.93Z"/>
        <g>
          <path class="cls-21" d="m57.674,110.386h-4.401c-.979,0-1.912.438-2.629,1.234-.927,1.029-1.387,2.546-1.228,4.058l2.2,21.018c.245,2.342,1.903,4.108,3.857,4.108s3.611-1.766,3.856-4.108l2.2-21.018c.159-1.512-.301-3.029-1.228-4.058-.717-.796-1.65-1.234-2.629-1.234Zm3.161,5.219l-2.2,21.018c-.209,1.985-1.567,3.481-3.161,3.481s-2.953-1.497-3.162-3.481l-2.2-21.018c-.138-1.317.256-2.632,1.053-3.517.582-.646,1.331-1.002,2.108-1.002h4.401c.777,0,1.526.356,2.108,1.002.797.885,1.19,2.199,1.053,3.517Z"/>
          <path class="cls-21" d="m26.445,93.697h-5.189c-1.31,0-2.523.708-3.167,1.848l-15.71,27.814c-.644,1.139-.634,2.493.025,3.622.659,1.13,1.834,1.805,3.142,1.805,1.138,0,2.225-.543,2.908-1.453l20.898-27.813c.834-1.109.967-2.569.348-3.811-.62-1.241-1.867-2.012-3.255-2.012Zm-20.899,34.389c-1.057,0-2.005-.544-2.537-1.457-.532-.912-.54-2.006-.021-2.925l15.71-27.814c.521-.921,1.5-1.493,2.558-1.493h5.189c1.138,0,2.12.607,2.628,1.625.509,1.018.403,2.167-.28,3.077l-20.899,27.813c-.552.735-1.43,1.173-2.348,1.173Z"/>
          <path class="cls-21" d="m108.695,123.359l-15.711-27.814c-.644-1.14-1.857-1.848-3.167-1.848h-5.189c-1.387,0-2.634.771-3.254,2.012-.62,1.241-.487,2.701.346,3.811l20.899,27.813c.684.91,1.771,1.453,2.909,1.453,1.308,0,2.481-.674,3.141-1.804.66-1.129.67-2.484.026-3.623Zm-3.167,4.727c-.919,0-1.797-.438-2.349-1.173l-20.899-27.813c-.684-.909-.788-2.06-.28-3.077.509-1.017,1.491-1.625,2.628-1.625h5.189c1.058,0,2.037.572,2.558,1.493l15.711,27.813c.52.92.512,2.014-.021,2.926-.532.912-1.48,1.457-2.536,1.457Z"/>
        </g>
        <path class="cls-23" d="m23.969,105.522l-16.08,21.39c-.55.73-1.43,1.17-2.34,1.17l10.93-16.84c-3.172-1.631-4.659-3.177-4.659-3.177l3.539-6.263,8.61,3.72Z"/>
        <path class="cls-23" d="m60.839,115.602l-2.2,21.02c-.17,1.63-1.12,2.92-2.33,3.34l1.079-20.913c-4.33.25-6.939-.167-6.939-.167l-.34-3.28c-.1-.89.06-1.79.42-2.55h9.88c.37.76.52,1.66.43,2.55Z"/>
        <path class="cls-23" d="m108.059,126.632c-.06.11-.13.21-.22.31l-10.77-17.16c-2.69,1.74-4.78,2.63-4.78,2.63l-5.48-7.29,8.73-3.64,12.55,22.22c.52.92.51,2.01-.03,2.93Z"/>
      </g>
      <g>
        <path class="cls-20" d="m84.332,81.154s0,0,0,0c-.182-.064-.366-.127-.551-.189h.001c.184.062.368.125.549.189Z"/>
        <path class="cls-20" d="m82.923,80.686s0,0,0,0c-.186-.058-.375-.114-.564-.169,0,0,0,0,.001,0,.188.056.376.111.562.169Z"/>
        <path class="cls-20" d="m79.934,79.863h0c-.186-.045-.374-.087-.561-.131h.002c.186.044.374.086.558.131Z"/>
        <path class="cls-20" d="m81.453,80.256h0c-.187-.051-.377-.1-.566-.149,0,0,.001,0,.002,0,.188.049.377.098.563.149Z"/>
        <path class="cls-20" d="m86.931,82.215s0,0,0,0c-.169-.08-.338-.158-.512-.235,0,0,0,0,0,0,.173.077.342.155.51.235Z"/>
        <path class="cls-20" d="m89.159,83.453s0,0,.001,0c-.147-.097-.292-.195-.447-.289,0,0,0,0,0,0,.154.094.299.191.446.288Z"/>
        <path class="cls-20" d="m85.673,81.663s0,0,0,0c-.177-.072-.355-.142-.536-.212h0c.18.07.358.14.534.212Z"/>
        <path class="cls-20" d="m88.095,82.81s0,0,.001,0c-.159-.088-.317-.175-.482-.26h0c.164.085.322.172.48.26Z"/>
        <path class="cls-20" d="m78.377,79.505s0,0,0,0c-.177-.038-.357-.074-.536-.111.001,0,.002,0,.003,0,.177.037.356.072.532.11Z"/>
        <path class="cls-20" d="m76.79,79.18s0,0,0,0c-.152-.029-.305-.056-.457-.084.002,0,.004,0,.006.001.15.028.301.054.451.083Z"/>
        <path class="cls-20" d="m66.764,77.794s.001,0,.002,0c-.38-.036-.755-.07-1.125-.101,0,0,0,0,0,0,.369.032.743.066,1.122.101Z"/>
        <path class="cls-20" d="m65.327,77.667s0,0,.001,0c-.407-.034-.806-.066-1.197-.095,0,0,0,0,0,0,.391.029.789.061,1.195.095Z"/>
        <path class="cls-20" d="m63.945,77.558s0,0,.001,0c-.441-.032-.87-.062-1.288-.089,0,0,0,0,0,0,.417.027.846.057,1.286.089Z"/>
        <path class="cls-20" d="m62.644,77.468c-3.622-.234-6.333-.278-7.102-.278h0c.769,0,3.48.044,7.102.278,0,0,0,0,0,0Z"/>
        <path class="cls-20" d="m72.653,78.489s.008.001.012.002c-.214-.031-.429-.064-.642-.094,0,0,0,0,0,0,.209.029.42.061.63.092Z"/>
        <path class="cls-20" d="m90.107,84.146s0,0,.001.001c-.134-.108-.264-.217-.407-.322,0,0,0,0,0,0,.142.104.272.213.405.321Z"/>
        <path class="cls-20" d="m68.25,77.942s.001,0,.002,0c-.355-.037-.708-.074-1.056-.108,0,0,0,0,0,0,.347.034.699.07,1.053.108Z"/>
        <path class="cls-20" d="m71.275,78.3s.003,0,.005,0c-.296-.039-.592-.079-.885-.115,0,0,0,0,0,0,.292.036.586.076.88.114Z"/>
        <path class="cls-20" d="m69.763,78.111s.002,0,.003,0c-.33-.039-.66-.078-.986-.114,0,0,0,0,0,0,.325.036.653.074.982.113Z"/>
        <path class="cls-20" d="m92.232,86.718s.003.006.005.009c-.099-.214-.2-.427-.328-.631,0,0,0,0,0,0,.126.201.225.411.323.622Z"/>
        <path class="cls-20" d="m75.168,78.884c.007.001.014.002.022.003-.007-.001-.014-.002-.022-.003Z"/>
        <path class="cls-20" d="m91.627,85.709s.001.002.002.003c-.104-.142-.2-.286-.318-.423,0,0,0,0,0,0,.116.136.212.279.315.42Z"/>
        <path class="cls-20" d="m19.872,101.704c10.47,4.84,26.74,6.156,35.67,6.156s20.538-.695,34.352-5.509c16.861-5.876,11.989-16.6,11.898-17.061h0v-.01c-9.82-13.47-43.66-13.47-46.25-13.47-3.03,0-48.92,0-48.92,21.62,0,3.9,1.59,7.1,4.22,9.72,11.84,11.9,44.7,11.9,44.7,11.9h0s-32.86,0-44.7-11.9c2.4-2.57,4.82-3.386,9.03-1.446Zm35.72-26.184s36.752,0,36.76,11.426c.251.612.385,1.262.385,1.953,0,1.632-1.138,2.997-3.003,4.141-8.374,5.147-31.615,5.799-34.192,5.799-1.18,0-6.689-.139-13.117-.779-.028-.003-.057-.006-.086-.009-.495-.05-.994-.102-1.498-.158-.047-.005-.093-.01-.14-.015-.526-.059-1.055-.12-1.588-.186-.004,0-.008,0-.013-.002-1.107-.137-2.223-.289-3.333-.459-.007-.001-.015-.002-.022-.003-.52-.08-1.037-.164-1.552-.251-.075-.013-.149-.026-.223-.039-.461-.079-.919-.162-1.374-.248-.079-.015-.158-.03-.237-.045-.487-.094-.969-.191-1.446-.292-.029-.006-.059-.012-.088-.018-1.049-.225-2.068-.47-3.043-.736-.009-.003-.018-.005-.027-.008-.456-.125-.899-.255-1.333-.389-.067-.021-.132-.042-.198-.063-.385-.121-.759-.246-1.124-.375-.068-.024-.136-.048-.203-.072-.384-.139-.756-.282-1.114-.43-.03-.012-.062-.024-.091-.037-.795-.333-1.522-.688-2.167-1.07-.023-.014-.044-.028-.066-.042-.205-.123-.41-.246-.597-.374,0,0,0-.01-.01-.01,0,0,0,0,0,0-.361-.15-4.37-2.61-4.37-4.71,0-2.27,3.85-12.5,39.11-12.5Z"/>
        <path class="cls-20" d="m90.931,84.892s.001,0,.002.002c-.119-.121-.232-.244-.361-.362,0,0,0,0,0,0,.129.117.241.24.359.36Z"/>
        <path class="cls-6" d="m92.031,88.9c0-.288-.028-.571-.081-.848-.029-.144-.08-.282-.123-.423-.034-.116-.06-.234-.104-.347-3.026-7.614-27.312-9.39-36.183-9.39-9.468,0-36.496,2.022-36.496,11.007,0,.207.027.409.072.607.008.035.019.07.029.105.044.165.103.327.177.486.017.037.033.074.052.111.137.268.326.525.542.777.135.157.282.314.453.47.059.054.123.107.185.16.172.147.36.292.562.437.123.087.244.175.376.26.065.042.133.083.201.125.225.137.458.273.707.405.016.009.033.018.049.026,2.645,1.385,6.584,2.446,10.908,3.242.169.031.337.062.507.092.094.017.19.032.284.049,8.009,1.379,16.922,1.828,20.646,1.883.255.003.509.005.745.005,7.003,0,22.791-1.131,31.119-4.384,3.257-1.273,5.372-2.871,5.372-4.854Z"/>
        <path class="cls-6" d="m91.724,87.282c.044.113.069.231.104.347-.035-.115-.059-.234-.104-.347Z"/>
        <path class="cls-6" d="m54.795,98.133c-3.724-.055-12.637-.504-20.646-1.883,7.4,1.294,15.743,1.833,20.646,1.883Z"/>
        <path class="cls-6" d="m19.146,89.612c-.009-.035-.021-.07-.029-.105.008.035.019.07.029.105Z"/>
        <path class="cls-6" d="m21.693,92.436c-.067-.041-.135-.083-.201-.125.066.042.133.083.201.125Z"/>
        <path class="cls-6" d="m22.449,92.867c-.017-.009-.033-.018-.049-.026.016.009.033.018.049.026Z"/>
        <path class="cls-6" d="m33.865,96.201c-.17-.03-.338-.062-.507-.092.169.031.337.062.507.092Z"/>
        <path class="cls-6" d="m92.036,88.899c0-.29-.031-.572-.085-.847.053.277.081.56.081.848,0,1.982-2.115,3.581-5.372,4.854,3.26-1.273,5.376-2.872,5.376-4.855Z"/>
        <path class="cls-6" d="m19.374,90.208c-.019-.037-.034-.074-.052-.111.017.037.033.074.052.111Z"/>
        <path class="cls-6" d="m20.369,91.454c-.17-.156-.318-.313-.453-.47.137.159.285.316.453.47Z"/>
        <path class="cls-6" d="m21.116,92.051c-.202-.144-.39-.29-.562-.437.174.148.361.294.562.437Z"/>
        <g>
          <path class="cls-21" d="m102.403,84.941c-.014-.025-.029-.05-.046-.073-9.546-13.094-40.673-13.758-46.816-13.758-3.243,0-14.684.196-25.752,2.72-15.615,3.561-23.868,10.338-23.868,19.6,0,3.853,1.489,7.29,4.426,10.216,5.016,5.041,14.161,8.611,27.178,10.608,9.636,1.479,17.933,1.496,18.016,1.496.123,0,12.445-.031,24.606-2.719,16.358-3.615,25.004-10.393,25.004-19.601,0-3.124-.925-5.98-2.749-8.489Zm-.612.339v.01c1.69,2.3,2.66,4.99,2.66,8.14,0,21.62-48.91,21.62-48.91,21.62,0,0-32.86,0-44.7-11.9-2.63-2.62-4.22-5.82-4.22-9.72,0-21.62,45.89-21.62,48.92-21.62,2.59,0,36.43,0,46.25,13.47Z"/>
          <path class="cls-21" d="m18.483,89.826c.054.195.125.386.212.573.025.053.05.106.077.159.134.257.288.51.48.752h.01c.073.091.172.174.253.262.122.133.24.267.38.394.12.11.257.215.389.322.144.115.285.231.442.343.045.032.081.067.127.099.01,0,.01.01.01.01.187.128.392.251.597.374.023.014.043.028.066.042.645.381,1.372.737,2.167,1.07.03.013.061.024.091.037.358.148.73.291,1.114.43.067.024.135.048.203.072.365.129.739.254,1.124.375.066.021.132.042.198.063.434.134.878.264,1.333.389.009.003.018.005.027.008.974.266,1.994.511,3.043.736.029.006.059.012.088.018.477.102.959.199,1.446.292.079.015.158.03.237.045.455.086.913.169,1.374.248.074.013.149.026.223.039.515.087,1.033.172,1.552.251.007.001.015.002.022.003,1.11.17,2.227.323,3.333.459.004,0,.008.001.013.002.532.066,1.062.127,1.588.186.047.005.093.01.14.015.503.056,1.003.108,1.498.158.028.003.057.006.086.009,6.429.64,11.937.779,13.117.779,2.577,0,25.818-.652,34.192-5.799,1.865-1.145,3.003-2.509,3.003-4.141,0-.691-.134-1.341-.385-1.953,0,.001,0,.002,0,.004-.031-.077-.079-.148-.115-.223-.001-.003-.003-.006-.005-.009-.098-.21-.197-.421-.323-.622,0,0,0,0,0,0-.055-.089-.123-.173-.188-.258-.032-.042-.062-.086-.094-.128-.103-.141-.199-.284-.315-.42,0,0,0,0,0,0-.116-.135-.25-.264-.378-.395,0,0,0-.001-.002-.002-.118-.121-.231-.243-.359-.36,0,0,0,0,0,0-.119-.108-.25-.211-.38-.316-.029-.023-.056-.047-.085-.071-.133-.108-.263-.217-.405-.321-.105-.077-.219-.151-.33-.225-.072-.048-.14-.097-.212-.145,0,0,0,0-.001,0-.147-.097-.292-.194-.446-.288,0,0,0,0,0,0-.198-.121-.406-.238-.616-.354,0,0,0,0-.001,0-.158-.087-.316-.175-.48-.26h0c-.222-.115-.451-.226-.683-.335,0,0,0,0,0,0-.168-.079-.337-.158-.51-.235-.025-.011-.05-.021-.075-.032-.22-.097-.443-.192-.671-.285,0,0,0,0,0,0-.176-.072-.354-.142-.534-.211h0c-.264-.102-.532-.201-.805-.298,0,0,0,0,0,0-.181-.064-.364-.126-.549-.188h-.001c-.17-.057-.343-.112-.515-.168-.115-.037-.228-.076-.344-.112-.185-.058-.373-.113-.562-.169,0,0,0,0-.001,0-.3-.089-.601-.177-.907-.261h0c-.186-.051-.375-.1-.563-.149-.288-.075-.577-.15-.869-.222-.029-.007-.057-.015-.086-.022h0c-.185-.045-.372-.087-.558-.131h-.002c-.331-.078-.661-.155-.997-.227,0,0,0,0,0,0-.176-.038-.354-.073-.532-.11,0,0-.002,0-.003,0-.349-.073-.698-.146-1.051-.214,0,0,0,0,0,0-.15-.029-.301-.055-.451-.083-.002,0-.004,0-.006-.001-.38-.071-.761-.142-1.143-.208-.007-.001-.014-.002-.022-.003-.834-.144-1.67-.272-2.503-.393-.004,0-.008-.001-.012-.002-.21-.03-.421-.063-.63-.092,0,0,0,0,0,0-.144-.02-.287-.038-.431-.057-.105-.014-.211-.028-.317-.042-.294-.039-.588-.078-.88-.114-.046-.006-.09-.011-.136-.016-.165-.02-.329-.039-.494-.058,0,0-.002,0-.003,0-.329-.039-.657-.078-.982-.113-.011-.001-.021-.002-.032-.003-.167-.018-.331-.035-.497-.052,0,0-.001,0-.002,0-.354-.037-.706-.074-1.053-.108,0,0,0,0,0,0-.145-.014-.287-.027-.431-.04,0,0-.001,0-.002,0-.379-.036-.754-.07-1.122-.101,0,0,0,0,0,0-.105-.009-.208-.017-.313-.026,0,0,0,0-.001,0-.406-.034-.804-.066-1.195-.095,0,0,0,0,0,0-.062-.005-.123-.009-.185-.014,0,0,0,0-.001,0-.44-.032-.869-.062-1.286-.089,0,0,0,0,0,0-.001,0-.002,0-.004,0-.004,0-.008,0-.011,0-3.621-.234-6.332-.278-7.102-.278-1.331,0-8.456.127-16.118,1.159-6.749.909-13.914,2.519-17.911,5.37-1.97,1.405-3.17,3.111-3.17,5.181,0,.262.038.515.094.763.013.055.032.109.047.164Zm68.177,3.928c-8.328,3.253-24.116,4.384-31.119,4.384-.236,0-.49-.002-.745-.005-4.903-.05-13.245-.589-20.646-1.883-.094-.017-.19-.032-.284-.049-.17-.03-.338-.061-.507-.092-4.324-.796-8.263-1.857-10.908-3.242-.017-.009-.033-.018-.049-.026-.249-.132-.482-.267-.707-.405-.068-.041-.135-.083-.201-.125-.133-.085-.253-.173-.376-.26-.201-.143-.388-.288-.562-.437-.062-.053-.127-.106-.185-.16-.167-.153-.315-.31-.453-.47-.102-.119-.196-.239-.284-.36-.092-.138-.187-.277-.258-.416-.019-.037-.034-.074-.052-.111-.074-.159-.133-.321-.177-.486-.009-.035-.021-.07-.029-.105-.045-.199-.072-.401-.072-.607,0-8.985,27.028-11.007,36.496-11.007,8.871,0,33.157,1.776,36.183,9.39.045.113.068.231.104.347.043.141.095.279.123.423.055.275.085.557.085.847,0,1.983-2.117,3.581-5.376,4.855Z"/>
        </g>
        <path class="cls-19" d="m104.452,93.43c0-3.15-.97-5.84-2.66-8.14.091.461,4.963,11.185-11.898,17.061-13.814,4.814-25.432,5.509-34.352,5.509s-25.2-1.316-35.67-6.156c-4.21-1.94-6.63-1.124-9.03,1.446,11.84,11.9,44.7,11.9,44.7,11.9.002,0,48.91,0,48.91-21.62Z"/>
        <path class="cls-19" d="m101.791,85.29h0c1.69,2.3,2.66,4.99,2.66,8.14,0,21.62-48.908,21.62-48.91,21.62h0s48.91,0,48.91-21.62c0-3.15-.97-5.84-2.66-8.14Z"/>
        <path class="cls-19" d="m20.851,92.73c-.046-.032-.082-.067-.127-.099-.157-.111-.298-.227-.44-.342-.133-.107-.27-.212-.39-.323-.139-.128-.257-.261-.378-.393-.082-.089-.18-.172-.254-.264h-.01c-.192-.242-.345-.494-.48-.752-.027-.052-.052-.105-.077-.158-.087-.187-.158-.379-.212-.574-.015-.054-.034-.108-.047-.162-.056-.248-.094-.501-.094-.763,0-2.071,1.2-3.776,3.171-5.181,3.987-2.845,11.13-4.454,17.865-5.364,7.68-1.038,14.831-1.165,16.164-1.165h0c.769,0,3.481.044,7.102.278.005,0,.009,0,.014,0,.418.027.847.057,1.288.089.062.005.123.009.185.014.391.029.79.061,1.197.095.104.009.207.017.313.026.37.032.745.066,1.125.101.144.013.286.026.431.04.348.034.701.07,1.056.108.177.018.35.036.528.055.326.036.656.075.986.114.21.025.418.048.629.074.293.036.589.076.885.115.248.032.494.063.743.097.214.03.428.063.642.094.833.12,1.669.249,2.503.393.007.001.014.002.022.003.382.066.763.137,1.143.208.152.028.305.055.457.084.353.068.701.141,1.051.214.179.037.358.073.536.111.335.073.666.15.997.227.187.044.375.086.561.131.321.078.637.161.952.243.189.05.379.098.566.15.307.084.607.172.907.261.189.056.378.112.564.169.291.09.575.184.858.279.185.062.369.125.551.189.273.097.541.196.805.298.181.07.359.14.536.212.253.103.502.208.745.316.174.077.344.156.512.235.233.11.462.221.683.335.165.085.323.173.482.26.21.116.418.233.616.354.155.094.3.192.447.289.185.122.37.244.542.37.143.105.273.214.407.322.158.127.318.253.463.385.129.117.242.241.361.362.128.131.262.259.378.395.117.137.214.281.318.423.094.128.198.252.28.384.128.204.229.418.328.631.034.074.083.144.114.22-.008-11.426-36.76-11.426-36.76-11.426-35.26,0-39.11,10.23-39.11,12.5,0,2.1,4.009,4.559,4.37,4.71Z"/>
        <path class="cls-19" d="m19.894,91.967s0,0,0,0c.121.11.257.216.39.323,0,0,0,0,0,0-.132-.106-.269-.212-.389-.322Z"/>
        <path class="cls-19" d="m19.262,91.31h0c.073.091.172.175.254.264,0,0,0,0-.001-.001-.081-.088-.179-.172-.253-.262Z"/>
        <path class="cls-19" d="m18.772,90.558c.134.258.288.51.48.752h0c-.192-.242-.345-.494-.48-.752,0,0,0,0,0,0Z"/>
        <path class="cls-19" d="m55.541,77.19h0c-1.333,0-8.484.127-16.164,1.165.015-.002.03-.004.045-.006,7.663-1.032,14.788-1.159,16.118-1.159Z"/>
        <path class="cls-19" d="m18.342,88.9c0-2.07,1.2-3.776,3.17-5.181,0,0,0,0,0,0-1.97,1.405-3.171,3.111-3.171,5.181,0,.262.038.515.094.763,0,0,0,0,0,0-.056-.248-.094-.501-.094-.763Z"/>
        <path class="cls-19" d="m20.724,92.631s0,0,0,0c.045.032.081.067.127.099,0,0,0,0,0,0-.046-.032-.082-.067-.127-.099Z"/>
        <path class="cls-19" d="m18.483,89.826s0,0,0,0c.054.196.125.387.212.574,0,0,0,0,0,0-.087-.187-.157-.378-.212-.573Z"/>
        <path class="cls-19" d="m19.894,91.966c-.139-.127-.257-.261-.378-.393.122.132.239.265.378.393Z"/>
        <path class="cls-19" d="m18.772,90.558c-.027-.052-.052-.105-.077-.158.025.053.049.106.077.158Z"/>
        <path class="cls-19" d="m18.483,89.825c-.015-.054-.034-.108-.047-.162.012.055.032.108.047.162Z"/>
        <path class="cls-19" d="m20.724,92.631c-.156-.111-.297-.227-.44-.342.143.115.284.231.44.342Z"/>
        <path class="cls-19" d="m92.352,86.95s0-.002,0-.004c-.031-.076-.08-.145-.114-.22.035.076.083.147.115.223Z"/>
        <path class="cls-19" d="m90.933,84.894c.128.131.262.259.378.395-.116-.135-.25-.264-.378-.395Z"/>
        <path class="cls-19" d="m85.674,81.664c.253.103.502.208.745.316-.244-.108-.492-.213-.745-.316Z"/>
        <path class="cls-19" d="m82.924,80.686c.291.09.575.184.858.279-.283-.095-.567-.189-.858-.279Z"/>
        <path class="cls-19" d="m84.333,81.154c.273.097.541.196.805.298-.264-.102-.532-.201-.805-.298Z"/>
        <path class="cls-19" d="m79.935,79.863c.321.078.637.161.952.243-.316-.083-.631-.165-.952-.243Z"/>
        <path class="cls-19" d="m81.453,80.256c.306.084.607.172.907.261-.3-.089-.6-.177-.907-.261Z"/>
        <path class="cls-19" d="m86.932,82.215c.233.11.462.221.683.335-.222-.114-.451-.225-.683-.335Z"/>
        <path class="cls-19" d="m91.629,85.711c.094.128.198.252.28.384-.082-.132-.186-.256-.28-.384Z"/>
        <path class="cls-19" d="m90.108,84.147c.158.127.318.253.463.385-.145-.132-.306-.258-.463-.385Z"/>
        <path class="cls-19" d="m88.097,82.811c.21.116.418.233.616.354-.198-.121-.406-.238-.616-.354Z"/>
        <path class="cls-19" d="m89.16,83.454c.185.122.37.244.542.37-.172-.127-.357-.248-.542-.37Z"/>
        <path class="cls-19" d="m78.377,79.505c.335.073.666.15.997.227-.331-.077-.661-.154-.997-.227Z"/>
        <path class="cls-19" d="m63.946,77.558c.062.005.123.009.185.014-.062-.005-.123-.009-.185-.014Z"/>
        <path class="cls-19" d="m68.252,77.943c.176.018.351.036.528.055-.178-.019-.352-.037-.528-.055Z"/>
        <path class="cls-19" d="m69.766,78.112c.21.025.418.048.629.074-.211-.026-.419-.049-.629-.074Z"/>
        <path class="cls-19" d="m65.328,77.667c.104.009.207.017.313.026-.105-.009-.208-.017-.313-.026Z"/>
        <path class="cls-19" d="m21.512,83.719c3.988-2.844,11.13-4.454,17.865-5.364-6.736.909-13.878,2.519-17.865,5.364Z"/>
        <path class="cls-19" d="m62.644,77.468s.009,0,.014,0c-.005,0-.009,0-.014,0Z"/>
        <path class="cls-19" d="m66.766,77.794c.144.013.286.026.431.04-.145-.014-.287-.027-.431-.04Z"/>
        <path class="cls-19" d="m71.28,78.3c.248.032.494.063.743.097-.249-.034-.495-.065-.743-.097Z"/>
        <path class="cls-19" d="m76.791,79.18c.353.068.702.141,1.051.214-.349-.073-.698-.146-1.051-.214Z"/>
        <path class="cls-19" d="m75.19,78.887c.382.066.763.137,1.143.208-.381-.071-.761-.143-1.143-.208Z"/>
        <path class="cls-19" d="m72.665,78.491c.833.121,1.669.249,2.503.393-.834-.143-1.67-.272-2.503-.393Z"/>
        <path class="cls-19" d="m18.436,89.662s0,0,0,0c.013.055.032.108.047.162,0,0,0,0,0,0-.015-.055-.034-.108-.047-.164Z"/>
        <path class="cls-19" d="m39.423,78.349c-.015.002-.03.004-.045.006-6.735.91-13.877,2.52-17.865,5.364,0,0,0,0,0,0,3.997-2.85,11.162-4.461,17.911-5.37Z"/>
        <path class="cls-19" d="m20.283,92.288s0,0,0,0c.143.115.284.231.44.342,0,0,0,0,0,0-.157-.111-.298-.227-.442-.343Z"/>
        <path class="cls-19" d="m18.695,90.399s0,0,0,0c.025.053.05.106.077.158,0,0,0,0,0,0-.027-.053-.052-.106-.077-.159Z"/>
        <path class="cls-19" d="m19.514,91.572s0,0,.001.001c.122.132.24.266.378.393,0,0,0,0,0,0-.139-.128-.258-.262-.38-.394Z"/>
      </g>
    </g>
    <g>
      <path class="cls-18" d="m72.699,70.732c-8.132,1.567-16.792,1.585-17.156,1.585-.921,0-22.628-.075-29.753-6.622-.181-.165-.35-.334-.51-.506-5.43,2.311-9.404,5.755-9.404,10.911,0,2.532,1.271,4.612,3.362,6.325,8.899,7.27,32.664,7.764,36.299,7.764,4.486,0,39.661-.746,39.661-14.089,0-2.889-1.25-5.253-3.31-7.165v-.01c-1.605-1.499-3.709-2.727-6.088-3.74-2.267,2.442-6.637,4.303-13.101,5.548Z"/>
      <path class="cls-18" d="m55.537,59.798h.02c5.131,0,19.883.395,30.042,4.542.841-1.032,1.33-2.206,1.33-3.549,0-2.031-.833-3.724-2.232-5.127v-.011h-.012c-6.811-6.843-26.98-6.843-29.142-6.843-2.614,0-31.397,0-31.397,11.981,0,1.347.483,2.521,1.324,3.548,2.5-1.015,5.438-1.878,8.841-2.577,8.634-1.773,17.716-1.965,21.227-1.965Z"/>
      <path class="cls-17" d="m55.543,71.616c2.999,0,23.323-.417,29.565-6.719-10.988-4.389-27.312-4.4-29.55-4.4h-.02c-2.163,0-18.543-.004-29.564,4.395.095.095.187.192.289.284,6.568,6.035,26.332,6.439,29.281,6.439Z"/>
      <path class="cls-16" d="m55.557,59.798h-.02c-3.511,0-12.594.191-21.228,1.965-3.403.699-6.341,1.562-8.841,2.577.088.107.177.213.272.317.074.08.153.158.231.237,11.021-4.399,27.401-4.395,29.564-4.395h.02c2.239,0,18.562.011,29.55,4.4.09-.091.165-.189.249-.283.082-.091.166-.181.242-.274-10.158-4.148-24.91-4.542-30.042-4.542Z"/>
      <path class="cls-21" d="m92.434,68.486c-.021-.026-.043-.051-.068-.074-1.62-1.512-3.713-2.76-6.085-3.79.89-1.157,1.348-2.433,1.348-3.832,0-2.09-.804-3.965-2.39-5.574-.033-.041-.071-.079-.112-.111-6.555-6.49-24.292-6.995-29.584-6.995-2.774,0-9.965.147-16.815,1.511-10.14,2.019-15.282,5.777-15.282,11.17,0,1.391.454,2.674,1.35,3.831-6.381,2.754-9.619,6.592-9.619,11.478,0,2.59,1.217,4.9,3.618,6.866,9.587,7.832,35.638,7.923,36.743,7.923,1.648,0,40.361-.168,40.361-14.789,0-2.889-1.165-5.45-3.464-7.613Zm-36.897,21.702c-3.635,0-27.4-.494-36.299-7.764-2.091-1.712-3.362-3.793-3.362-6.325,0-5.155,3.974-8.599,9.404-10.911.161.171.329.34.51.506,7.125,6.547,28.832,6.622,29.753,6.622.365,0,9.025-.018,17.156-1.585,6.464-1.245,10.834-3.106,13.101-5.548,2.38,1.013,4.483,2.241,6.088,3.74v.01c2.059,1.912,3.31,4.276,3.31,7.165,0,13.343-35.175,14.089-39.661,14.089Zm.006-41.379c2.162,0,22.331,0,29.142,6.843h.012v.011c1.399,1.402,2.232,3.096,2.232,5.127,0,1.344-.489,2.518-1.33,3.549-.076.093-.16.183-.242.274-.084.094-.159.191-.249.283-6.241,6.302-26.566,6.719-29.565,6.719-2.949,0-22.713-.404-29.281-6.439-.102-.093-.194-.189-.289-.284-.078-.078-.158-.156-.231-.236-.095-.104-.185-.21-.272-.317-.841-1.027-1.324-2.201-1.324-3.548,0-11.981,28.784-11.981,31.397-11.981Z"/>
    </g>
    <g>
      <polygon class="cls-14" points="36.855 36.028 55.187 44.002 55.187 3.573 36.855 36.028"/>
      <polygon class="cls-13" points="74.222 35.38 55.886 3.55 55.886 43.985 74.222 35.38"/>
      <polygon class="cls-9" points="37.344 37.004 55.187 62.832 55.187 44.766 52.018 43.387 37.344 37.004"/>
      <polygon class="cls-9" points="37.344 37.004 37.344 37.004 52.018 43.387 37.344 37.004"/>
      <polygon class="cls-2" points="55.886 62.81 73.715 36.392 69.264 38.48 55.886 44.759 55.886 62.81"/>
      <polygon class="cls-2" points="69.264 38.48 55.886 44.758 55.886 44.759 69.264 38.48"/>
      <path class="cls-21" d="m75.019,35.361L55.84,2.066c-.005-.008-.014-.009-.019-.017-.021-.03-.052-.048-.08-.07-.031-.024-.058-.051-.096-.064-.008-.003-.012-.011-.02-.013-.031-.009-.06.006-.091.006-.03,0-.058-.014-.088-.006-.008.002-.012.01-.019.013-.038.013-.066.04-.096.064-.028.022-.059.04-.079.071-.005.008-.015.009-.019.017l-19.178,33.953c-.026.047-.039.098-.042.151,0,.009.003.017.003.026,0,.036,0,.072.012.107.008.023.024.041.037.062.005.008.002.018.007.025l19.178,27.76s.004.003.006.005c.005.007.014.01.019.017.037.044.085.078.14.099.008.003.012.012.02.014.034.011.068.016.103.016.035,0,.069-.005.104-.016.009-.003.013-.012.021-.015.053-.021.098-.054.134-.096.007-.008.018-.013.024-.022.002-.002.005-.003.007-.006l19.179-28.419c.005-.007.002-.017.007-.025.013-.022.029-.042.037-.066.011-.035.011-.072.011-.108,0-.008.003-.015.002-.022-.004-.052-.017-.103-.043-.149Zm-1.304,1.031l-17.829,26.418v-18.051h0s13.378-6.278,13.378-6.278l4.451-2.089ZM55.187,3.573v40.43l-18.332-7.974L55.187,3.573Zm.699,40.413V3.55l18.336,31.831-18.336,8.605Zm-18.542-6.981l17.843,7.761v18.066l-17.843-25.828h0Z"/>
    </g>
  </g>
  <path class="cls-22" d="m55.604,1.9c.007,0,.014,0,.021.003.008.002.012.011.02.013.038.013.066.04.096.064.028.022.059.039.08.07.005.007.014.009.019.017l19.179,33.294c.027.046.04.097.043.149,0,.007-.002.015-.002.022,0,.037,0,.073-.011.108-.008.025-.024.044-.037.066-.004.008-.002.017-.007.024l-8.748,12.962c6.903.763,14.918,2.499,18.87,6.412.041.033.078.07.112.111,1.586,1.61,2.39,3.485,2.39,5.574,0,1.398-.457,2.675-1.348,3.832,2.372,1.03,4.466,2.278,6.085,3.79.024.023.047.048.068.074,2.299,2.163,3.464,4.724,3.464,7.614,0,1.013-.203,1.951-.549,2.83,2.854,1.622,5.286,3.575,7.009,5.938.017.023.032.048.046.073,1.824,2.509,2.749,5.365,2.749,8.489,0,4.671-2.235,8.713-6.563,12.038l10.106,17.891c.644,1.139.634,2.494-.026,3.623-.659,1.129-1.833,1.804-3.141,1.804-1.138,0-2.226-.543-2.909-1.453l-12.873-17.131c-2.831,1.086-6.019,2.038-9.599,2.829-6.907,1.527-13.863,2.196-18.609,2.49-.004.053-.003.105-.009.158l-2.2,21.018c-.245,2.342-1.903,4.108-3.856,4.108s-3.612-1.766-3.857-4.108l-2.2-21.018c-.006-.055-.005-.11-.009-.166-3.212-.201-7.395-.57-11.881-1.258-6.337-.972-11.748-2.32-16.219-4.026l-12.852,17.104c-.684.91-1.771,1.453-2.908,1.453-1.308,0-2.482-.675-3.142-1.805-.659-1.129-.669-2.483-.025-3.622l10.087-17.859c-.772-.594-1.48-1.212-2.119-1.854-2.937-2.926-4.426-6.363-4.426-10.216,0-5.891,3.352-10.771,9.8-14.464-.36-.912-.546-1.868-.546-2.866,0-4.886,3.238-8.724,9.619-11.478-.896-1.157-1.35-2.44-1.35-3.831,0-5.393,5.142-9.151,15.282-11.17,1.965-.391,3.954-.68,5.863-.896l-8.52-12.333c-.005-.008-.003-.017-.007-.025-.012-.021-.029-.039-.037-.062-.011-.035-.012-.071-.012-.107,0-.009-.003-.017-.003-.026.003-.052.016-.104.042-.151L55.232,2.069c.004-.008.014-.01.019-.017.021-.031.051-.049.079-.071.031-.024.058-.051.096-.064.008-.003.011-.011.019-.013.007-.002.014-.002.02-.002.023,0,.045.008.068.008.024,0,.047-.009.07-.009m0-1.8c-.024,0-.05,0-.077.002-.021,0-.042-.001-.062-.001-.156,0-.331.023-.482.063-.122.032-.242.078-.355.136-.187.09-.329.198-.427.278-.061.044-.166.129-.28.257-.1.107-.188.225-.259.351l-19.176,33.95c-.159.283-.25.592-.271.919-.005.084-.005.173.002.261.006.136.027.333.1.554.03.09.073.189.123.285.046.098.1.192.162.279l6.832,9.89c-1.065.16-2.087.338-3.059.531-11.102,2.21-16.731,6.562-16.731,12.935,0,1.062.204,2.077.608,3.036-5.893,3.011-8.878,7.133-8.878,12.272,0,.692.074,1.377.22,2.046-6.205,3.94-9.474,9.2-9.474,15.284,0,4.349,1.667,8.215,4.955,11.491.337.339.698.677,1.078,1.01L.811,122.474c-.962,1.702-.948,3.726.038,5.415.985,1.689,2.741,2.697,4.696,2.697,1.7,0,3.325-.812,4.347-2.171l12.049-16.035c4.337,1.532,9.48,2.76,15.311,3.654,3.349.514,6.879.907,10.513,1.172l2.06,19.678c.341,3.261,2.769,5.721,5.648,5.721s5.305-2.459,5.647-5.721l2.059-19.669c4.65-.337,11.022-1.025,17.357-2.426,3.066-.678,5.944-1.494,8.577-2.433l12.067,16.059c1.022,1.36,2.647,2.171,4.348,2.171,1.955,0,3.71-1.008,4.695-2.696.986-1.688,1.001-3.713.039-5.416l-9.362-16.573c4.017-3.51,6.051-7.699,6.051-12.47,0-3.483-1.023-6.671-3.042-9.478-.031-.049-.063-.096-.096-.143-1.537-2.108-3.664-4.022-6.336-5.703.146-.663.22-1.333.22-2.006,0-3.375-1.333-6.355-3.961-8.859-.044-.048-.09-.095-.137-.14-1.286-1.2-2.888-2.295-4.781-3.269.406-.962.611-1.979.611-3.041,0-2.558-.963-4.843-2.862-6.791-.07-.079-.144-.154-.223-.223-3.198-3.131-8.895-5.312-16.961-6.498l7.114-10.542c.049-.072.092-.149.13-.228.045-.084.096-.194.137-.325.076-.245.092-.455.095-.581.004-.071.003-.143-.001-.211-.024-.339-.117-.648-.278-.928L57.4,1.168c-.08-.139-.182-.27-.298-.385-.097-.101-.186-.174-.259-.228-.088-.07-.206-.156-.36-.235-.123-.066-.253-.119-.385-.155-.154-.042-.334-.066-.494-.066h0Z"/>
  <g>
    <path class="cls-2" d="m178.64,48.449c3.272,0,4.795-.305,5.937-.533,1.065-.305,1.675-.533,3.12-.533,2.969,0,9.134,5.861,9.134,14.081,0,3.806-1.979,6.317-5.86,6.317-6.622,0-6.546-8.981-10.428-8.981-2.968,0-2.663,4.11-2.663,4.719v23.366c0,9.057,7.002,4.719,7.002,10.046,0,2.359-1.446,5.708-15.679,5.708-3.882,0-18.114.152-18.114-5.708,0-4.034,4.719-2.436,6.24-5.328.762-1.599,1.066-6.165,1.142-8.068l.609-16.82c.305-7.992-1.294-7.916-2.359-7.916-3.425,0-5.1,8.981-11.265,8.981-2.968,0-4.719-2.74-4.719-5.48,0-6.47,5.48-14.918,9.818-14.918.533,0,1.37.229,2.816.533,1.445.228,3.501.533,6.545.533h18.724Z"/>
    <path class="cls-7" d="m200.861,78.741c0-7.459-4.719-3.273-4.719-7.916,0-6.013,17.81-7.688,18.495-7.688,2.892,0,2.968.761,3.272,3.349.076.914,0,2.664,1.294,2.664,1.827,0,2.969-6.013,9.514-6.013,5.1,0,8.448,3.806,8.448,8.829,0,5.1-4.338,9.133-9.361,9.133-4.947,0-6.317-4.338-8.296-4.338-2.131,0-1.751,5.1-1.751,6.47,0,2.283.229,5.479.609,8.372.456,3.349,6.241,1.294,6.241,5.86,0,4.795-6.698,5.176-15.07,5.176-3.501,0-13.853.152-13.853-5.1,0-3.197,3.501-3.197,4.339-5.86.608-1.903.837-6.241.837-8.373v-4.566Z"/>
    <path class="cls-8" d="m275.523,83.612c0,13.396,4.567,6.089,4.567,10.199,0,4.338-5.938,9.057-11.493,9.057-6.013,0-6.165-3.881-8.067-3.881-.914,0-1.903.989-3.577,1.902-1.675.99-3.958,1.979-7.459,1.979-6.317,0-12.635-3.349-12.635-10.884,0-5.404,5.176-12.102,18.571-12.102,2.359,0,3.425.152,3.425-2.588,0-2.512-.076-7.763-3.577-7.763-4.566,0-5.023,8.22-11.797,8.22-2.436,0-4.263-1.75-4.263-4.186,0-6.469,12.863-10.655,20.094-10.655,4.338,0,16.211,1.674,16.211,13.091v7.611Zm-22.833,6.698c0,1.979,1.065,4.11,3.272,4.11,2.893,0,3.121-3.121,3.121-5.404,0-1.674.076-3.577-2.055-3.577-2.588,0-4.339,2.436-4.339,4.871Z"/>
    <path class="cls-1" d="m284.578,80.567c0-4.871-.99-6.241-1.751-6.926-.989-.837-2.055-.761-2.055-2.74,0-5.632,18.875-7.764,19.027-7.764,1.903,0,2.055,1.675,2.055,3.273,0,.914-.304,3.501,1.294,3.501.762,0,1.979-1.674,4.11-3.425,2.131-1.674,5.176-3.349,9.666-3.349,9.058,0,9.134,6.774,10.731,6.774.609,0,1.979-1.674,4.187-3.425,2.283-1.674,5.327-3.349,9.209-3.349,7.23,0,11.722,3.958,11.722,11.417v16.059c0,4.415,2.815,4.795,2.815,7.002,0,4.795-8.677,5.023-11.645,5.023-2.512,0-11.341-.533-11.341-4.491,0-2.816,2.664-2.74,2.664-7.154v-6.85c0-3.197.381-9.59-3.958-9.59-4.262,0-3.882,5.175-3.882,7.992v4.719c0,9.362,2.74,7.763,2.74,10.58,0,4.719-9.133,4.795-11.873,4.795-11.493,0-12.102-2.131-12.025-4.262.076-4.034,3.882-.837,3.653-9.895v-4.338c0-2.74.381-9.59-3.958-9.59-4.262,0-3.882,5.175-3.882,7.992v6.165c0,7.002,2.056,6.546,2.056,9.286,0,1.979-1.751,4.643-12.178,4.643-2.969,0-11.95.076-11.95-3.958,0-3.425,4.567-1.598,4.567-11.112v-7.002Z"/>
    <path class="cls-5" d="m361.216,86.732c0-7.992-.456-9.742-.837-10.123-.989-.989-5.1,0-5.1-4.338,0-5.176,15.679-9.134,21.312-9.134,1.826,0,2.131.609,2.131,2.284,0,.533.076,1.598.837,1.598,1.066,0,5.328-4.11,11.569-4.11,9.971,0,15.298,9.97,15.298,18.875,0,10.199-7.23,21.083-18.343,21.083-3.577,0-7.154-1.903-7.839-1.903-1.065,0-1.218,1.599-1.218,2.436,0,5.785,4.719,3.958,4.719,7.688,0,4.262-6.926,4.795-9.895,4.795-10.199,0-18.19-3.729-18.19-7.611,0-3.425,3.12-2.131,4.49-5.099.762-1.599,1.065-3.806,1.065-12.254v-4.186Zm20.854-12.559c-2.739,0-3.653,1.142-3.653,14.994,0,2.512,1.218,3.425,3.882,3.425,4.719,0,5.328-5.1,5.328-8.753s-.762-9.666-5.557-9.666Z"/>
    <path class="cls-4" d="m407.184,84.221c0-13.624,11.949-21.311,24.508-21.311,13.319,0,20.931,10.427,20.931,19.865,0,12.482-13.396,20.093-24.584,20.093-11.265,0-20.854-6.622-20.854-18.647Zm21.234-12.33c-2.512,0-3.881,2.359-3.729,4.567.304,4.795,1.674,16.516,6.926,16.82,2.892.152,3.501-2.283,3.501-4.719,0-3.425-1.522-16.668-6.698-16.668Z"/>
    <path class="cls-3" d="m475.909,88.178c0,1.37-.076,3.882.305,5.1.838,2.74,4.263,1.446,4.263,4.643,0,5.1-9.286,4.719-12.559,4.719-3.425,0-14.08.38-14.08-5.023,0-2.664,3.272-1.674,4.186-4.491.989-3.121.989-12.634.989-16.364,0-2.968.152-8.677-.532-12.102-1.142-5.632-5.633-3.653-5.633-7.992,0-6.622,19.789-8.22,20.854-8.22,2.588,0,3.197,1.674,3.197,3.958,0,1.75-.99,10.123-.99,21.007v14.765Z"/>
    <path class="cls-10" d="m502.622,87.722c0,8.981,4.49,5.708,4.49,9.742,0,5.176-9.666,5.176-13.091,5.176-13.091,0-13.624-2.969-13.624-4.795,0-2.74,3.121-2.893,4.034-5.252.989-2.664,1.142-13.7.305-16.516-.686-2.664-4.567-1.827-4.567-5.251,0-5.404,19.332-7.688,20.094-7.688,2.283,0,2.359,1.751,2.359,3.349v21.235Zm-15.07-27.02c-3.196,0-6.621-1.446-6.621-5.175,0-5.023,10.047-7.078,13.928-7.078,3.045,0,7.383.989,7.383,4.795,0,5.937-10.351,7.458-14.689,7.458Z"/>
    <path class="cls-11" d="m528.725,89.092c0,7.383,2.588,6.089,2.588,8.981,0,4.719-10.122,4.567-13.243,4.567-3.044,0-10.808,0-10.808-4.567,0-3.653,3.501-.38,3.729-7.839l.305-11.417c.152-5.632-4.491-3.806-4.491-7.839s17.506-7.84,19.028-7.84c1.674,0,2.739,1.446,2.739,2.969,0,.457-.075.913-.075,1.37,0,.914.38,1.979,1.521,1.979,1.218,0,1.903-1.598,3.425-3.197,1.522-1.522,3.806-3.121,8.145-3.121,15.755,0,13.091,15.451,13.852,27.02.381,6.013,3.502,4.643,3.502,7.916,0,1.37.304,4.567-14.005,4.567-2.74,0-10.047.152-10.047-4.11,0-2.74,2.512-1.446,2.893-6.393.381-5.404,2.512-17.582-4.643-17.582-4.871,0-4.415,5.251-4.415,8.677v5.86Z"/>
    <path class="cls-12" d="m577.889,84.297c-.838,0-2.056-.229-2.056,1.065,0,3.806,4.947,7.002,8.524,7.002,5.709,0,8.524-3.425,10.123-3.425s2.968,2.359,2.968,3.806c0,5.86-10.731,10.123-17.581,10.123-13.7,0-20.778-9.894-20.778-19.712,0-11.721,9.971-20.246,21.387-20.246,12.939,0,18.647,9.97,18.647,15.679,0,5.023-2.283,5.708-4.719,5.708h-16.516Zm6.621-9.59c0-2.74-1.675-4.871-4.49-4.871-2.512,0-4.566,2.587-4.566,5.023,0,2.74,2.587,2.131,4.566,2.131,2.055,0,4.49.457,4.49-2.283Z"/>
  </g>
</svg>